<mxfile host="app.diagrams.net" modified="2024-05-22T09:37:22.614Z" agent="Mozilla/5.0 (Windows NT 10.0; Win64; x64) AppleWebKit/537.36 (KHTML, like Gecko) Chrome/125.0.0.0 Safari/537.36 Edg/125.0.0.0" etag="yD9DGk0y1-Q3Q3Bc-zaS" version="24.4.4" type="github">
  <diagram name="Page-1" id="2a216829-ef6e-dabb-86c1-c78162f3ba2b">
    <mxGraphModel dx="1426" dy="-315" grid="1" gridSize="10" guides="1" tooltips="1" connect="1" arrows="1" fold="1" page="1" pageScale="1" pageWidth="850" pageHeight="1100" background="none" math="0" shadow="0">
      <root>
        <mxCell id="0" />
        <mxCell id="1" parent="0" />
        <mxCell id="rfxDV2EknZkREh7y6ZBy-1" value="" style="rounded=0;whiteSpace=wrap;html=1;" vertex="1" parent="1">
          <mxGeometry x="30" y="1272" width="1200" height="260" as="geometry" />
        </mxCell>
        <mxCell id="rfxDV2EknZkREh7y6ZBy-3" value="" style="rounded=0;whiteSpace=wrap;html=1;" vertex="1" parent="1">
          <mxGeometry x="30" y="1630" width="1200" height="260" as="geometry" />
        </mxCell>
        <mxCell id="rfxDV2EknZkREh7y6ZBy-2" value="&lt;font style=&quot;font-size: 24px;&quot;&gt;NRWave&lt;/font&gt;" style="text;html=1;align=center;verticalAlign=middle;whiteSpace=wrap;rounded=0;rotation=-90;" vertex="1" parent="1">
          <mxGeometry x="-30" y="1745" width="170" height="30" as="geometry" />
        </mxCell>
        <mxCell id="rfxDV2EknZkREh7y6ZBy-5" value="&lt;font style=&quot;font-size: 24px;&quot;&gt;my.NRW&lt;/font&gt;" style="text;html=1;align=center;verticalAlign=middle;whiteSpace=wrap;rounded=0;rotation=-90;" vertex="1" parent="1">
          <mxGeometry x="-30" y="1387" width="170" height="30" as="geometry" />
        </mxCell>
        <mxCell id="rfxDV2EknZkREh7y6ZBy-6" value="" style="rounded=0;whiteSpace=wrap;html=1;" vertex="1" parent="1">
          <mxGeometry x="30" y="1120" width="1200" height="130" as="geometry" />
        </mxCell>
        <mxCell id="rfxDV2EknZkREh7y6ZBy-7" value="&lt;font style=&quot;font-size: 24px;&quot;&gt;PSB&lt;/font&gt;" style="text;html=1;align=center;verticalAlign=middle;whiteSpace=wrap;rounded=0;rotation=-90;" vertex="1" parent="1">
          <mxGeometry y="1170" width="110" height="30" as="geometry" />
        </mxCell>
        <mxCell id="rfxDV2EknZkREh7y6ZBy-8" value="Maßnahme" style="shape=mxgraph.bpmn.shape;html=1;verticalLabelPosition=bottom;labelBackgroundColor=#ffffff;verticalAlign=top;perimeter=ellipsePerimeter;outline=standard;symbol=general;" vertex="1" parent="1">
          <mxGeometry x="98" y="1160" width="50" height="50" as="geometry" />
        </mxCell>
        <mxCell id="rfxDV2EknZkREh7y6ZBy-13" style="edgeStyle=orthogonalEdgeStyle;rounded=0;orthogonalLoop=1;jettySize=auto;html=1;" edge="1" parent="1" source="rfxDV2EknZkREh7y6ZBy-10" target="rfxDV2EknZkREh7y6ZBy-12">
          <mxGeometry relative="1" as="geometry" />
        </mxCell>
        <mxCell id="rfxDV2EknZkREh7y6ZBy-10" value="Bes01/ A01&lt;div&gt;anstoßen&lt;/div&gt;" style="shape=ext;rounded=1;html=1;whiteSpace=wrap;" vertex="1" parent="1">
          <mxGeometry x="189" y="1152.5" width="120" height="65" as="geometry" />
        </mxCell>
        <mxCell id="rfxDV2EknZkREh7y6ZBy-11" value="" style="edgeStyle=elbowEdgeStyle;fontSize=12;html=1;endArrow=blockThin;endFill=1;rounded=0;" edge="1" parent="1">
          <mxGeometry width="160" relative="1" as="geometry">
            <mxPoint x="149" y="1185" as="sourcePoint" />
            <mxPoint x="189" y="1185" as="targetPoint" />
          </mxGeometry>
        </mxCell>
        <mxCell id="rfxDV2EknZkREh7y6ZBy-12" value="ÄM in Z_SHOW_FORM freigeben" style="shape=ext;rounded=1;html=1;whiteSpace=wrap;" vertex="1" parent="1">
          <mxGeometry x="189" y="1369.5" width="120" height="65" as="geometry" />
        </mxCell>
        <mxCell id="rfxDV2EknZkREh7y6ZBy-21" style="edgeStyle=orthogonalEdgeStyle;rounded=0;orthogonalLoop=1;jettySize=auto;html=1;entryX=0.5;entryY=0;entryDx=0;entryDy=0;" edge="1" parent="1" source="rfxDV2EknZkREh7y6ZBy-14">
          <mxGeometry relative="1" as="geometry">
            <mxPoint x="249" y="1775" as="targetPoint" />
          </mxGeometry>
        </mxCell>
        <mxCell id="rfxDV2EknZkREh7y6ZBy-14" value="Verarbeitung der XML-Datei innerhalb NRWave" style="shape=ext;rounded=1;html=1;whiteSpace=wrap;" vertex="1" parent="1">
          <mxGeometry x="189" y="1667" width="120" height="65" as="geometry" />
        </mxCell>
        <mxCell id="rfxDV2EknZkREh7y6ZBy-19" value="" style="edgeStyle=orthogonalEdgeStyle;rounded=0;orthogonalLoop=1;jettySize=auto;html=1;entryX=0.5;entryY=0;entryDx=0;entryDy=0;" edge="1" parent="1" source="rfxDV2EknZkREh7y6ZBy-12" target="rfxDV2EknZkREh7y6ZBy-14">
          <mxGeometry relative="1" as="geometry">
            <mxPoint x="249" y="1435" as="sourcePoint" />
            <mxPoint x="249" y="1570.0000000000002" as="targetPoint" />
          </mxGeometry>
        </mxCell>
        <mxCell id="rfxDV2EknZkREh7y6ZBy-28" style="edgeStyle=orthogonalEdgeStyle;rounded=0;orthogonalLoop=1;jettySize=auto;html=1;entryX=0.5;entryY=1;entryDx=0;entryDy=0;" edge="1" parent="1" source="rfxDV2EknZkREh7y6ZBy-23" target="rfxDV2EknZkREh7y6ZBy-27">
          <mxGeometry relative="1" as="geometry" />
        </mxCell>
        <mxCell id="rfxDV2EknZkREh7y6ZBy-23" value="Übermittlung LBV-Personalnummer" style="shape=ext;rounded=1;html=1;whiteSpace=wrap;" vertex="1" parent="1">
          <mxGeometry x="390" y="1767.5" width="120" height="65" as="geometry" />
        </mxCell>
        <mxCell id="rfxDV2EknZkREh7y6ZBy-26" style="edgeStyle=orthogonalEdgeStyle;rounded=0;orthogonalLoop=1;jettySize=auto;html=1;entryX=0;entryY=0.5;entryDx=0;entryDy=0;" edge="1" parent="1" target="rfxDV2EknZkREh7y6ZBy-23">
          <mxGeometry relative="1" as="geometry">
            <mxPoint x="274" y="1800" as="sourcePoint" />
          </mxGeometry>
        </mxCell>
        <mxCell id="rfxDV2EknZkREh7y6ZBy-34" style="edgeStyle=orthogonalEdgeStyle;rounded=0;orthogonalLoop=1;jettySize=auto;html=1;entryX=0.5;entryY=1;entryDx=0;entryDy=0;" edge="1" parent="1" source="rfxDV2EknZkREh7y6ZBy-27" target="rfxDV2EknZkREh7y6ZBy-33">
          <mxGeometry relative="1" as="geometry" />
        </mxCell>
        <mxCell id="rfxDV2EknZkREh7y6ZBy-37" value="&lt;font style=&quot;font-size: 12px;&quot;&gt;Aufruf&lt;/font&gt;&lt;div style=&quot;font-size: 12px;&quot;&gt;&lt;font style=&quot;font-size: 12px;&quot;&gt;erfolgreich&lt;/font&gt;&lt;/div&gt;" style="edgeLabel;html=1;align=center;verticalAlign=middle;resizable=0;points=[];" vertex="1" connectable="0" parent="rfxDV2EknZkREh7y6ZBy-34">
          <mxGeometry x="0.094" y="-2" relative="1" as="geometry">
            <mxPoint x="-2" y="12" as="offset" />
          </mxGeometry>
        </mxCell>
        <mxCell id="rfxDV2EknZkREh7y6ZBy-27" value="" style="shape=mxgraph.bpmn.shape;html=1;verticalLabelPosition=bottom;labelBackgroundColor=#ffffff;verticalAlign=top;perimeter=rhombusPerimeter;background=gateway;outline=none;symbol=parallelGw;" vertex="1" parent="1">
          <mxGeometry x="425" y="1688" width="50" height="50" as="geometry" />
        </mxCell>
        <mxCell id="rfxDV2EknZkREh7y6ZBy-31" value="Aufruf&lt;div&gt;fehlgeschlagen&lt;/div&gt;" style="edgeStyle=elbowEdgeStyle;fontSize=12;html=1;endArrow=blockThin;endFill=1;rounded=0;entryX=1;entryY=0.5;entryDx=0;entryDy=0;" edge="1" parent="1" target="rfxDV2EknZkREh7y6ZBy-23">
          <mxGeometry x="0.1038" width="160" relative="1" as="geometry">
            <mxPoint x="474" y="1713" as="sourcePoint" />
            <mxPoint x="634" y="1713" as="targetPoint" />
            <Array as="points">
              <mxPoint x="540" y="1758" />
            </Array>
            <mxPoint as="offset" />
          </mxGeometry>
        </mxCell>
        <mxCell id="rfxDV2EknZkREh7y6ZBy-42" style="edgeStyle=orthogonalEdgeStyle;rounded=0;orthogonalLoop=1;jettySize=auto;html=1;entryX=0.5;entryY=1;entryDx=0;entryDy=0;" edge="1" parent="1" source="rfxDV2EknZkREh7y6ZBy-33" target="rfxDV2EknZkREh7y6ZBy-38">
          <mxGeometry relative="1" as="geometry" />
        </mxCell>
        <mxCell id="rfxDV2EknZkREh7y6ZBy-33" value="Aufruf FuBa: Z_PALP_MYNRW_RUECK" style="shape=ext;rounded=1;html=1;whiteSpace=wrap;" vertex="1" parent="1">
          <mxGeometry x="370" y="1550" width="160" height="65" as="geometry" />
        </mxCell>
        <mxCell id="rfxDV2EknZkREh7y6ZBy-43" style="edgeStyle=orthogonalEdgeStyle;rounded=0;orthogonalLoop=1;jettySize=auto;html=1;" edge="1" parent="1" source="rfxDV2EknZkREh7y6ZBy-38" target="rfxDV2EknZkREh7y6ZBy-39">
          <mxGeometry relative="1" as="geometry" />
        </mxCell>
        <mxCell id="rfxDV2EknZkREh7y6ZBy-38" value="FuBa 1: Speicherung der LBV-PersNr in der Tabelle ZNPA_LBV_2_MYNRW" style="shape=ext;rounded=1;html=1;whiteSpace=wrap;" vertex="1" parent="1">
          <mxGeometry x="370" y="1430" width="160" height="65" as="geometry" />
        </mxCell>
        <mxCell id="rfxDV2EknZkREh7y6ZBy-50" style="edgeStyle=orthogonalEdgeStyle;rounded=0;orthogonalLoop=1;jettySize=auto;html=1;entryX=0;entryY=0.5;entryDx=0;entryDy=0;" edge="1" parent="1" source="rfxDV2EknZkREh7y6ZBy-39" target="rfxDV2EknZkREh7y6ZBy-48">
          <mxGeometry relative="1" as="geometry" />
        </mxCell>
        <mxCell id="rfxDV2EknZkREh7y6ZBy-39" value="FuBa 2: Speicherung der LBV-PersNr in IT9501" style="shape=ext;rounded=1;html=1;whiteSpace=wrap;" vertex="1" parent="1">
          <mxGeometry x="590" y="1430" width="160" height="65" as="geometry" />
        </mxCell>
        <mxCell id="rfxDV2EknZkREh7y6ZBy-40" value="Pflegen der ÄM im NRWave-System" style="shape=ext;rounded=1;html=1;whiteSpace=wrap;" vertex="1" parent="1">
          <mxGeometry x="180" y="1788" width="129" height="65" as="geometry" />
        </mxCell>
        <mxCell id="rfxDV2EknZkREh7y6ZBy-59" style="edgeStyle=orthogonalEdgeStyle;rounded=0;orthogonalLoop=1;jettySize=auto;html=1;" edge="1" parent="1" source="rfxDV2EknZkREh7y6ZBy-41" target="rfxDV2EknZkREh7y6ZBy-56">
          <mxGeometry relative="1" as="geometry" />
        </mxCell>
        <mxCell id="rfxDV2EknZkREh7y6ZBy-41" value="ZNPA_LBV_2_MYNRW" style="shape=datastore;html=1;labelPosition=center;verticalLabelPosition=bottom;align=center;verticalAlign=top;" vertex="1" parent="1">
          <mxGeometry x="530" y="1300" width="60" height="55" as="geometry" />
        </mxCell>
        <mxCell id="rfxDV2EknZkREh7y6ZBy-47" style="edgeStyle=orthogonalEdgeStyle;rounded=0;orthogonalLoop=1;jettySize=auto;html=1;entryX=0;entryY=0.5;entryDx=0;entryDy=0;" edge="1" parent="1" source="rfxDV2EknZkREh7y6ZBy-45" target="rfxDV2EknZkREh7y6ZBy-41">
          <mxGeometry relative="1" as="geometry" />
        </mxCell>
        <mxCell id="rfxDV2EknZkREh7y6ZBy-45" value="" style="shape=mxgraph.bpmn.data;labelPosition=center;verticalLabelPosition=bottom;align=center;verticalAlign=top;size=15;html=1;bpmnTransferType=input;" vertex="1" parent="1">
          <mxGeometry x="432.5" y="1330" width="35" height="50" as="geometry" />
        </mxCell>
        <mxCell id="rfxDV2EknZkREh7y6ZBy-46" style="edgeStyle=orthogonalEdgeStyle;rounded=0;orthogonalLoop=1;jettySize=auto;html=1;entryX=0.5;entryY=1;entryDx=0;entryDy=0;entryPerimeter=0;" edge="1" parent="1" source="rfxDV2EknZkREh7y6ZBy-38" target="rfxDV2EknZkREh7y6ZBy-45">
          <mxGeometry relative="1" as="geometry">
            <Array as="points">
              <mxPoint x="450" y="1410" />
              <mxPoint x="450" y="1410" />
            </Array>
          </mxGeometry>
        </mxCell>
        <mxCell id="rfxDV2EknZkREh7y6ZBy-49" value="LBV-PersNr" style="edgeLabel;html=1;align=center;verticalAlign=middle;resizable=0;points=[];" vertex="1" connectable="0" parent="rfxDV2EknZkREh7y6ZBy-46">
          <mxGeometry x="0.24" y="2" relative="1" as="geometry">
            <mxPoint x="2" y="-12" as="offset" />
          </mxGeometry>
        </mxCell>
        <mxCell id="rfxDV2EknZkREh7y6ZBy-52" style="edgeStyle=orthogonalEdgeStyle;rounded=0;orthogonalLoop=1;jettySize=auto;html=1;entryX=0.5;entryY=1;entryDx=0;entryDy=0;" edge="1" parent="1" source="rfxDV2EknZkREh7y6ZBy-48" target="rfxDV2EknZkREh7y6ZBy-51">
          <mxGeometry relative="1" as="geometry" />
        </mxCell>
        <mxCell id="rfxDV2EknZkREh7y6ZBy-53" value="Speichern&lt;div&gt;fehlgeschlagen&lt;/div&gt;" style="edgeLabel;html=1;align=center;verticalAlign=middle;resizable=0;points=[];" vertex="1" connectable="0" parent="rfxDV2EknZkREh7y6ZBy-52">
          <mxGeometry x="-0.0783" relative="1" as="geometry">
            <mxPoint as="offset" />
          </mxGeometry>
        </mxCell>
        <mxCell id="rfxDV2EknZkREh7y6ZBy-48" value="" style="shape=mxgraph.bpmn.shape;html=1;verticalLabelPosition=bottom;labelBackgroundColor=#ffffff;verticalAlign=top;perimeter=rhombusPerimeter;background=gateway;outline=none;symbol=parallelGw;" vertex="1" parent="1">
          <mxGeometry x="790" y="1437.5" width="50" height="50" as="geometry" />
        </mxCell>
        <mxCell id="rfxDV2EknZkREh7y6ZBy-54" style="edgeStyle=orthogonalEdgeStyle;rounded=0;orthogonalLoop=1;jettySize=auto;html=1;entryX=0.5;entryY=0;entryDx=0;entryDy=0;" edge="1" parent="1" target="rfxDV2EknZkREh7y6ZBy-39">
          <mxGeometry relative="1" as="geometry">
            <mxPoint x="735" y="1350" as="sourcePoint" />
            <mxPoint x="590" y="1400" as="targetPoint" />
            <Array as="points">
              <mxPoint x="735" y="1360" />
              <mxPoint x="720" y="1360" />
              <mxPoint x="720" y="1400" />
              <mxPoint x="670" y="1400" />
            </Array>
          </mxGeometry>
        </mxCell>
        <mxCell id="rfxDV2EknZkREh7y6ZBy-57" style="edgeStyle=orthogonalEdgeStyle;rounded=0;orthogonalLoop=1;jettySize=auto;html=1;exitX=0;exitY=0.5;exitDx=0;exitDy=0;" edge="1" parent="1" source="rfxDV2EknZkREh7y6ZBy-51" target="rfxDV2EknZkREh7y6ZBy-56">
          <mxGeometry relative="1" as="geometry" />
        </mxCell>
        <mxCell id="rfxDV2EknZkREh7y6ZBy-51" value="Statusprüfung in der Tabelle ZNPA_LBV_2_MYNRW" style="shape=ext;rounded=1;html=1;whiteSpace=wrap;" vertex="1" parent="1">
          <mxGeometry x="735" y="1314.5" width="160" height="65.5" as="geometry" />
        </mxCell>
        <mxCell id="rfxDV2EknZkREh7y6ZBy-56" value="" style="shape=mxgraph.bpmn.data;labelPosition=center;verticalLabelPosition=bottom;align=center;verticalAlign=top;size=15;html=1;bpmnTransferType=output;" vertex="1" parent="1">
          <mxGeometry x="651.5" y="1302.5" width="37" height="50" as="geometry" />
        </mxCell>
      </root>
    </mxGraphModel>
  </diagram>
</mxfile>
